# xmcd
#
# Track frame offsets:
# 150
# 24750
# 46800
# 66375
# 83475
# 98550
# 115275
# 154575
# 172350
# 192300
# 209850
# 231375
#
# Disc length: 3263 seconds
#
#
# Revision: 4
# Processed by: cddbd v1.5.2PL0 Copyright (c) Steve Scherf et al.
# Submitted via: KELLER's_Musik_Katalog 2006 
#
DISCID=a10cbd0c
DTITLE=JOHN LEE HOOKER, JR. - Cold As Ice
DYEAR=2006
DGENRE=R&B - Jazz - Down Home Blues
TTITLE0=You Blew It Baby
TTITLE1=Fed Up
TTITLE2=Cold As Ice
TTITLE3=Somebody's Out To Get Me
TTITLE4=Do Daddy (Requiem For John Lee Hooker)
TTITLE5=Wait Until My Change Comes
TTITLE6=4 Hours Straight - Blues Man
TTITLE7=Trapped
TTITLE8=I'm In The Mood
TTITLE9=I Got To Be Me
TTITLE10=Oh Baby
TTITLE11=Eva'body Pays Attention
EXTD=Label: Telarc\nBestellnummer: CD-83642\nFirma: in-akustik GmbH\nEVOE: 2006\n\n\n Für freedb bereitgestelt von:\n    KELLER'S Musik-Katalog 2007 2007
EXTT0=
EXTT1=
EXTT2=
EXTT3=
EXTT4=
EXTT5=
EXTT6=
EXTT7=
EXTT8=
EXTT9=
EXTT10=
EXTT11=
PLAYORDER=
